HIERARCHY
ROOT Hips
{
	OFFSET 0.000000 0.000000 0.000000
	CHANNELS 6 Xposition Yposition Zposition Xrotation Yrotation Zrotation
	JOINT Spine
	{
		OFFSET 0.000000 9.478148 -2.775501
		CHANNELS 3 Xrotation Yrotation Zrotation
		JOINT Spine1
		{
			OFFSET 0.000000 11.208902 -1.976433
			CHANNELS 3 Xrotation Yrotation Zrotation
			JOINT Spine2
			{
				OFFSET 0.000000 11.338509 -0.991992
				CHANNELS 3 Xrotation Yrotation Zrotation
				JOINT Spine3
				{
					OFFSET 0.000000 11.381817 0.000000
					CHANNELS 3 Xrotation Yrotation Zrotation
					JOINT Neck
					{
						OFFSET 0.000000 14.633766 1.463377
						CHANNELS 3 Xrotation Yrotation Zrotation
						JOINT Neck1
						{
							OFFSET 0.000000 4.974941 0.435251
							CHANNELS 3 Xrotation Yrotation Zrotation
							JOINT Head
							{
								OFFSET 0.000000 4.918083 0.867190
								CHANNELS 3 Xrotation Yrotation Zrotation
								JOINT HeadEnd
								{
									OFFSET 0.000000 9.727722 0.000000
									CHANNELS 3 Xrotation Yrotation Zrotation
									End Site
									{
										OFFSET 0.000000 9.727722 -0.000000
									}
								}
							}
						}
					}
					JOINT RightShoulder
					{
						OFFSET 0.000000 10.452690 6.225392
						CHANNELS 3 Xrotation Yrotation Zrotation
						JOINT RightArm
						{
							OFFSET -18.111942 0.000004 0.000000
							CHANNELS 3 Xrotation Yrotation Zrotation
							JOINT RightForeArm
							{
								OFFSET -28.591759 0.000008 0.000000
								CHANNELS 3 Xrotation Yrotation Zrotation
								JOINT RightHand
								{
									OFFSET -21.365116 0.000008 0.000000
									CHANNELS 3 Xrotation Yrotation Zrotation
									JOINT RightHandMiddle1
									{
										OFFSET -10.503326 0.000004 0.000000
										CHANNELS 3 Xrotation Yrotation Zrotation
										JOINT RightHandMiddle2
										{
											OFFSET -5.526688 0.000000 0.000000
											CHANNELS 3 Xrotation Yrotation Zrotation
											JOINT RightHandMiddle3
											{
												OFFSET -3.514343 0.000000 0.000000
												CHANNELS 3 Xrotation Yrotation Zrotation
												JOINT RightHandMiddle4
												{
													OFFSET -2.174561 0.000000 0.000000
													CHANNELS 3 Xrotation Yrotation Zrotation
													End Site
													{
														OFFSET -2.174568 0.000000 0.000000
													}
												}
											}
										}
									}
									JOINT RightHandRing
									{
										OFFSET -0.250000 -0.250000 -0.938809
										CHANNELS 3 Xrotation Yrotation Zrotation
										JOINT RightHandRing1
										{
											OFFSET -9.254745 0.000004 -0.835184
											CHANNELS 3 Xrotation Yrotation Zrotation
											JOINT RightHandRing2
											{
												OFFSET -5.142273 0.000000 -0.464059
												CHANNELS 3 Xrotation Yrotation Zrotation
												JOINT RightHandRing3
												{
													OFFSET -3.387474 0.000000 -0.305698
													CHANNELS 3 Xrotation Yrotation Zrotation
													JOINT RightHandRing4
													{
														OFFSET -2.153320 0.000000 -0.194324
														CHANNELS 3 Xrotation Yrotation Zrotation
														End Site
														{
															OFFSET -2.153320 0.000000 -0.194324
														}
													}
												}
											}
										}
										JOINT RightHandPinky
										{
											OFFSET -0.164612 -0.250000 -0.957479
											CHANNELS 3 Xrotation Yrotation Zrotation
											JOINT RightHandPinky1
											{
												OFFSET -7.679901 0.000004 -1.717375
												CHANNELS 3 Xrotation Yrotation Zrotation
												JOINT RightHandPinky2
												{
													OFFSET -4.014572 0.000000 -0.897738
													CHANNELS 3 Xrotation Yrotation Zrotation
													JOINT RightHandPinky3
													{
														OFFSET -2.530914 0.000000 -0.565962
														CHANNELS 3 Xrotation Yrotation Zrotation
														JOINT RightHandPinky4
														{
															OFFSET -1.946533 0.000000 -0.435282
															CHANNELS 3 Xrotation Yrotation Zrotation
															End Site
															{
																OFFSET -1.946526 0.000000 -0.435282
															}
														}
													}
												}
											}
										}
									}
									JOINT RightHandIndex
									{
										OFFSET -0.250000 -0.250000 0.938809
										CHANNELS 3 Xrotation Yrotation Zrotation
										JOINT RightHandIndex1
										{
											OFFSET -10.131142 0.000004 0.914273
											CHANNELS 3 Xrotation Yrotation Zrotation
											JOINT RightHandIndex2
											{
												OFFSET -5.259697 0.000000 0.474655
												CHANNELS 3 Xrotation Yrotation Zrotation
												JOINT RightHandIndex3
												{
													OFFSET -3.114670 0.000000 0.281080
													CHANNELS 3 Xrotation Yrotation Zrotation
													JOINT RightHandIndex4
													{
														OFFSET -1.969109 0.000000 0.177699
														CHANNELS 3 Xrotation Yrotation Zrotation
														End Site
														{
															OFFSET -1.969109 0.000000 0.177700
														}
													}
												}
											}
										}
										JOINT RightHandThumb1
										{
											OFFSET -0.164612 -0.750000 0.957479
											CHANNELS 3 Xrotation Yrotation Zrotation
											JOINT RightHandThumb2
											{
												OFFSET -6.052307 0.934448 2.510436
												CHANNELS 3 Xrotation Yrotation Zrotation
												JOINT RightHandThumb3
												{
													OFFSET -3.932266 0.607124 1.631065
													CHANNELS 3 Xrotation Yrotation Zrotation
													JOINT RightHandThumb4
													{
														OFFSET -2.476494 0.382359 1.027225
														CHANNELS 3 Xrotation Yrotation Zrotation
														End Site
														{
															OFFSET -2.476494 0.382359 1.027225
														}
													}
												}
											}
										}
									}
								}
							}
						}
					}
					JOINT LeftShoulder
					{
						OFFSET 0.000000 10.452690 6.225392
						CHANNELS 3 Xrotation Yrotation Zrotation
						JOINT LeftArm
						{
							OFFSET 18.111942 0.000004 0.000000
							CHANNELS 3 Xrotation Yrotation Zrotation
							JOINT LeftForeArm
							{
								OFFSET 28.591759 0.000008 0.000000
								CHANNELS 3 Xrotation Yrotation Zrotation
								JOINT LeftHand
								{
									OFFSET 21.365116 0.000008 0.000000
									CHANNELS 3 Xrotation Yrotation Zrotation
									JOINT LeftHandMiddle1
									{
										OFFSET 9.879738 0.000004 0.000000
										CHANNELS 3 Xrotation Yrotation Zrotation
										JOINT LeftHandMiddle2
										{
											OFFSET 5.155434 0.000000 0.000000
											CHANNELS 3 Xrotation Yrotation Zrotation
											JOINT LeftHandMiddle3
											{
												OFFSET 3.305817 0.000000 0.000000
												CHANNELS 3 Xrotation Yrotation Zrotation
												JOINT LeftHandMiddle4
												{
													OFFSET 2.005173 0.000000 0.000000
													CHANNELS 3 Xrotation Yrotation Zrotation
													End Site
													{
														OFFSET 2.005157 0.000000 0.000000
													}
												}
											}
										}
									}
									JOINT LeftHandRing
									{
										OFFSET 0.250000 -0.250000 -1.020439
										CHANNELS 3 Xrotation Yrotation Zrotation
										JOINT LeftHandRing1
										{
											OFFSET 8.692375 0.000004 -0.784433
											CHANNELS 3 Xrotation Yrotation Zrotation
											JOINT LeftHandRing2
											{
												OFFSET 4.773117 0.000000 -0.430744
												CHANNELS 3 Xrotation Yrotation Zrotation
												JOINT LeftHandRing3
												{
													OFFSET 3.221649 0.000000 -0.290734
													CHANNELS 3 Xrotation Yrotation Zrotation
													JOINT LeftHandRing4
													{
														OFFSET 1.985573 0.000000 -0.179186
														CHANNELS 3 Xrotation Yrotation Zrotation
														End Site
														{
															OFFSET 1.985573 0.000000 -0.179186
														}
													}
												}
											}
										}
										JOINT LeftHandPinky
										{
											OFFSET 0.157272 -0.250000 -1.038779
											CHANNELS 3 Xrotation Yrotation Zrotation
											JOINT LeftHandPinky1
											{
												OFFSET 7.183098 0.000004 -1.606280
												CHANNELS 3 Xrotation Yrotation Zrotation
												JOINT LeftHandPinky2
												{
													OFFSET 3.768478 0.000000 -0.842705
													CHANNELS 3 Xrotation Yrotation Zrotation
													JOINT LeftHandPinky3
													{
														OFFSET 2.365509 0.000000 -0.528975
														CHANNELS 3 Xrotation Yrotation Zrotation
														JOINT LeftHandPinky4
														{
															OFFSET 1.794891 0.000000 -0.401373
															CHANNELS 3 Xrotation Yrotation Zrotation
															End Site
															{
																OFFSET 1.794891 0.000000 -0.401373
															}
														}
													}
												}
											}
										}
									}
									JOINT LeftHandIndex
									{
										OFFSET 0.250000 -0.250000 1.020439
										CHANNELS 3 Xrotation Yrotation Zrotation
										JOINT LeftHandIndex1
										{
											OFFSET 9.462280 0.000004 0.853912
											CHANNELS 3 Xrotation Yrotation Zrotation
											JOINT LeftHandIndex2
											{
												OFFSET 4.935730 0.000000 0.445419
												CHANNELS 3 Xrotation Yrotation Zrotation
												JOINT LeftHandIndex3
												{
													OFFSET 2.934341 0.000000 0.264806
													CHANNELS 3 Xrotation Yrotation Zrotation
													JOINT LeftHandIndex4
													{
														OFFSET 1.815712 0.000000 0.163857
														CHANNELS 3 Xrotation Yrotation Zrotation
														End Site
														{
															OFFSET 1.815712 0.000000 0.163857
														}
													}
												}
											}
										}
										JOINT LeftHandThumb1
										{
											OFFSET 0.157272 -0.750000 1.038779
											CHANNELS 3 Xrotation Yrotation Zrotation
											JOINT LeftHandThumb2
											{
												OFFSET 5.630173 0.869270 2.335339
												CHANNELS 3 Xrotation Yrotation Zrotation
												JOINT LeftHandThumb3
												{
													OFFSET 3.737183 0.577003 1.550144
													CHANNELS 3 Xrotation Yrotation Zrotation
													JOINT LeftHandThumb4
													{
														OFFSET 2.283577 0.352573 0.947204
														CHANNELS 3 Xrotation Yrotation Zrotation
														End Site
														{
															OFFSET 2.283577 0.352573 0.947204
														}
													}
												}
											}
										}
									}
								}
							}
						}
					}
				}
			}
		}
	}
	JOINT RightUpLeg
	{
		OFFSET -10.711558 0.000000 0.000000
		CHANNELS 3 Xrotation Yrotation Zrotation
		JOINT RightLeg
		{
			OFFSET 0.000000 -40.025131 0.000000
			CHANNELS 3 Xrotation Yrotation Zrotation
			JOINT RightFoot
			{
				OFFSET 0.000000 -40.242668 0.000000
				CHANNELS 3 Xrotation Yrotation Zrotation
				JOINT RightForeFoot
				{
					OFFSET 0.000000 -4.238708 0.000000
					CHANNELS 3 Xrotation Yrotation Zrotation
					JOINT RightToeBase
					{
						OFFSET 0.000000 0.000000 16.600136
						CHANNELS 3 Xrotation Yrotation Zrotation
						JOINT RightToeBaseEnd
						{
							OFFSET 0.000000 0.000000 6.968128
							CHANNELS 3 Xrotation Yrotation Zrotation
							End Site
							{
								OFFSET 0.000000 0.000000 6.968124
							}
						}
					}
				}
			}
		}
	}
	JOINT LeftUpLeg
	{
		OFFSET 10.711558 0.000000 0.000000
		CHANNELS 3 Xrotation Yrotation Zrotation
		JOINT LeftLeg
		{
			OFFSET 0.000000 -40.025131 0.000000
			CHANNELS 3 Xrotation Yrotation Zrotation
			JOINT LeftFoot
			{
				OFFSET 0.000000 -40.242668 0.000000
				CHANNELS 3 Xrotation Yrotation Zrotation
				JOINT LeftForeFoot
				{
					OFFSET 0.000000 -4.238708 0.000000
					CHANNELS 3 Xrotation Yrotation Zrotation
					JOINT LeftToeBase
					{
						OFFSET 0.000000 0.000000 16.600136
						CHANNELS 3 Xrotation Yrotation Zrotation
						JOINT LeftToeBaseEnd
						{
							OFFSET 0.000000 0.000000 8.836094
							CHANNELS 3 Xrotation Yrotation Zrotation
							End Site
							{
								OFFSET 0.000000 0.000000 8.836094
							}
						}
					}
				}
			}
		}
	}
}
MOTION
Frames: 4
Frame Time: 0.008333
0.005331 -0.006470 0.041931 -10.732202 0.808603 1.199279 10.119596 -0.346992 -0.563504 4.018178 -0.037980 -0.338338 4.739800 -0.118948 -2.466350 -4.738036 -0.229549 -1.199550 -12.103916 0.692400 -3.078072 14.643716 -1.879438 8.535984 7.884252 -0.419443 2.771640 -0.000000 0.000000 -0.000000 -0.000003 -14.575450 14.257578 12.821090 32.390038 64.433095 -352.494643 105.524722 352.765556 2.985628 -13.572115 12.530564 -7.287396 2.848488 68.763455 -0.000000 0.000001 69.463604 -0.000000 0.000000 34.498893 -0.000000 -0.000000 -0.000003 -16.592877 -0.349670 0.271634 -1.177743 -4.925935 78.824420 -5.150113 -4.645991 84.100727 -2.511934 -0.651023 29.055481 0.000001 0.000002 -0.000005 -3.539355 0.591896 -1.393361 -9.191524 -8.678760 65.706276 -10.482963 -5.404594 54.451918 -7.218569 -2.222580 34.188273 0.000000 -0.000003 0.000000 -10.062744 7.308789 -1.050424 12.456546 -6.629151 46.826756 4.239447 2.207708 55.001399 1.796431 0.322076 20.326937 -0.000000 0.000000 0.000001 55.425144 1.000250 3.313202 -1.488757 -12.297946 -0.482041 3.062239 -5.105186 8.569159 -0.000000 -0.000003 -0.000002 -0.000000 1.833801 -4.796041 8.824516 -18.960385 -75.556816 -140.022197 -63.104357 -143.212838 11.123849 24.686529 -25.210297 -6.929058 -6.451999 -47.241977 -0.000001 -0.000001 -52.618145 0.000000 -0.000001 -36.977688 -0.000001 -0.000000 -0.000000 -23.710517 0.364285 -2.344175 0.474996 5.620477 -45.575441 -4.928403 3.593086 -72.172765 -2.332918 0.556104 -26.811964 -0.000000 -0.000000 0.000000 -3.197720 -1.418304 -0.489403 -4.502129 6.469165 -35.542576 -9.531549 4.229039 -47.774042 -6.415186 1.719233 -29.977096 -0.000000 0.000003 0.000000 -11.725463 -5.781902 0.205820 11.052088 9.032355 -38.246187 4.064210 -1.972105 -51.754430 1.251009 -0.153616 -14.000381 0.000002 -0.000000 0.000002 54.092226 1.114616 -9.065813 -1.843601 11.337149 1.216148 1.562786 2.823179 -4.604688 -0.000002 0.000001 -0.000003 27.235017 -8.498752 -1.114971 -16.547436 0.000000 -0.000001 3.056068 16.006985 -5.286738 -0.000000 0.000000 -0.000001 -9.950231 0.000001 0.000000 -0.000001 -0.000001 -0.000001 23.527640 11.790718 -6.639634 -6.022185 -0.000000 -0.000001 -3.075697 -9.528609 3.184235 -0.000000 0.000000 0.000000 0.369109 0.000000 -0.000000 0.000000 -0.000000 0.00000
0.000622 -0.001648 0.019377 -10.799507 0.896685 1.219416 10.157327 -0.355811 -0.576444 4.019979 -0.033662 -0.356745 4.752348 -0.095759 -2.476000 -4.719152 -0.223283 -1.185418 -11.962275 0.623732 -3.048754 14.534366 -1.903906 8.594372 7.827385 -0.424167 2.787852 -0.000001 0.000000 -0.000000 -0.000003 -14.611448 14.272718 12.834318 32.402349 64.395481 -352.551033 105.547904 352.820771 2.982393 -13.603593 12.489876 -7.272581 2.839583 68.784171 -0.000000 0.000000 69.485734 -0.000000 -0.000000 34.497312 0.000000 -0.000000 -0.000002 -16.567247 -0.352782 0.264393 -1.187459 -4.924857 78.862539 -5.150009 -4.644988 84.089567 -2.511003 -0.650508 29.043699 -0.000000 -0.000002 -0.000002 -3.531237 0.582277 -1.396133 -9.203300 -8.662037 65.644388 -10.485770 -5.408508 54.473166 -7.220397 -2.223823 34.198078 0.000001 -0.000000 -0.000000 -10.041801 7.309908 -1.049987 12.459499 -6.627072 46.838531 4.238481 2.206331 54.982801 1.799742 0.323308 20.366082 -0.000000 -0.000000 -0.000002 55.425844 1.042112 3.294129 -1.463389 -12.265912 -0.439683 3.079923 -5.130108 8.613896 -0.000000 0.000002 0.000001 -0.000000 1.796457 -4.771972 8.834108 -18.944961 -75.582928 -140.193731 -63.148937 -143.369045 11.106319 24.607150 -25.241263 -6.914532 -6.438423 -47.241352 -0.000002 -0.000001 -52.734340 -0.000001 -0.000001 -36.947587 -0.000001 0.000001 -0.000000 -23.667480 0.370115 -2.352785 0.449810 5.596039 -45.564154 -4.932355 3.605395 -72.315741 -2.329975 0.554619 -26.775455 -0.000001 0.000001 0.000000 -3.227807 -1.434187 -0.503767 -4.495355 6.475593 -35.530251 -9.532970 4.230607 -47.783402 -6.432936 1.729481 -30.068173 -0.000000 0.000003 -0.000001 -11.713164 -5.778259 0.204385 11.035445 9.058925 -38.153082 4.057161 -1.963191 -51.628785 1.247341 -0.152703 -13.958489 0.000001 -0.000000 0.000004 54.087261 1.137577 -9.179508 -1.903458 11.383028 1.317743 1.511832 2.739109 -4.463206 0.000002 0.000004 -0.000000 27.327575 -8.432377 -1.113180 -16.601229 0.000000 -0.000001 3.050909 15.817484 -5.166738 -0.000000 0.000000 -0.000000 -9.847114 0.000001 -0.000000 -0.000000 0.000001 -0.000000 23.568483 11.710583 -6.617243 -6.033397 0.000000 -0.000000 -3.075408 -9.536459 3.102913 -0.000000 -0.000000 0.000000 0.445165 -0.000001 0.000000 -0.000000 -0.000000 0.00000
0.000000 0.000000 0.000000 -10.872226 0.982023 1.256250 10.215130 -0.370998 -0.583442 4.039486 -0.032650 -0.375385 4.734731 -0.108913 -2.511803 -4.715895 -0.230739 -1.183928 -11.875009 0.629693 -3.058708 14.492615 -1.898008 8.730129 7.765858 -0.427817 2.819108 -0.000000 0.000000 -0.000000 -0.000003 -14.618990 14.295895 12.868240 32.437730 64.376063 -352.742743 105.559378 353.006060 2.978013 -13.589513 12.484344 -7.260844 2.831580 68.807114 -0.000001 0.000001 69.462232 -0.000000 0.000000 34.485065 -0.000000 -0.000000 0.000001 -16.558885 -0.357923 0.262779 -1.193898 -4.924711 78.913827 -5.149528 -4.640355 84.037992 -2.508929 -0.649356 29.017434 0.000000 -0.000000 -0.000001 -3.521640 0.576680 -1.394541 -9.222671 -8.655036 65.650214 -10.485899 -5.408688 54.474140 -7.216440 -2.221135 34.176853 0.000001 -0.000002 0.000002 -10.028768 7.311321 -1.051453 12.463761 -6.630627 46.840000 4.236426 2.203403 54.943237 1.802192 0.324215 20.395010 -0.000000 -0.000000 -0.000001 55.439966 1.086481 3.285175 -1.425186 -12.230237 -0.374640 3.096163 -5.152955 8.654948 -0.000002 0.000001 -0.000002 -0.000000 1.880981 -4.717428 8.828107 -19.000803 -75.589772 -140.088942 -63.132723 -143.270950 11.095905 24.602017 -25.224331 -6.906140 -6.430346 -47.242031 -0.000001 -0.000001 -52.832347 0.000000 -0.000000 -36.944367 0.000000 0.000000 -0.000000 -23.664712 0.376196 -2.348035 0.453995 5.599117 -45.629933 -4.932444 3.605680 -72.319026 -2.332309 0.555793 -26.804405 -0.000001 -0.000002 -0.000001 -3.218106 -1.431186 -0.507601 -4.494469 6.491121 -35.593011 -9.522696 4.219328 -47.716019 -6.423308 1.723920 -30.018770 -0.000001 -0.000001 0.000002 -11.689963 -5.781117 0.210491 11.007405 9.050228 -38.098030 4.061438 -1.968595 -51.704969 1.251192 -0.153661 -14.002468 0.000001 -0.000000 0.000003 54.100238 1.103779 -9.123809 -1.837048 11.326276 1.205704 1.522020 2.755964 -4.491548 -0.000001 0.000006 0.000003 27.425875 -8.366444 -1.131142 -16.661451 -0.000000 -0.000002 3.017313 15.619570 -4.960984 0.000000 0.000000 -0.000000 -9.683513 0.000000 -0.000000 0.000000 0.000000 -0.000000 23.627718 11.658049 -6.620829 -6.050918 -0.000001 -0.000001 -3.037200 -9.568223 3.115056 0.000000 -0.000000 -0.000000 0.390004 0.000000 -0.000000 -0.000000 0.000000 -0.00000
0.006454 0.001976 -0.042358 -10.877010 1.066880 1.296071 10.214159 -0.372417 -0.593962 4.054049 -0.030085 -0.379528 4.719209 -0.120315 -2.543641 -4.712862 -0.234025 -1.183846 -11.874343 0.608000 -3.064861 14.524467 -1.896441 8.818072 7.740664 -0.429891 2.835920 -0.000001 0.000000 0.000000 -0.000003 -14.625045 14.302825 12.857153 32.447749 64.389245 -352.797576 105.553334 353.058707 2.995871 -13.603187 12.544985 -7.241378 2.825075 68.799088 -0.000000 0.000001 69.412713 0.000000 0.000000 34.497711 -0.000000 -0.000000 0.000000 -16.552149 -0.358263 0.259968 -1.186983 -4.926440 78.932077 -5.148841 -4.633850 83.965571 -2.509065 -0.649432 29.019155 0.000001 -0.000002 0.000001 -3.522390 0.568437 -1.400510 -9.239774 -8.652771 65.675739 -10.487035 -5.410271 54.482735 -7.214716 -2.219967 34.167612 0.000001 -0.000000 -0.000001 -10.015958 7.315886 -1.059146 12.439129 -6.671371 46.686594 4.231130 2.195876 54.841481 1.806090 0.325666 20.441090 -0.000001 -0.000001 -0.000001 55.413516 1.126913 3.250719 -1.413393 -12.242211 -0.352491 3.116775 -5.181902 8.707001 -0.000001 0.000003 0.000002 -0.000000 1.898593 -4.671293 8.816986 -19.007508 -75.628841 -140.084161 -63.139027 -143.264761 11.091647 24.659003 -25.167765 -6.941893 -6.427166 -47.405000 -0.000000 -0.000000 -53.068306 0.000000 -0.000001 -37.035458 0.000000 0.000001 0.000000 -23.669192 0.379755 -2.336476 0.461409 5.603412 -45.817042 -4.934578 3.612385 -72.396863 -2.338130 0.558738 -26.876644 -0.000001 0.000002 -0.000002 -3.191245 -1.422764 -0.502878 -4.507359 6.502423 -35.719772 -9.517623 4.213762 -47.682742 -6.413122 1.718042 -29.966495 -0.000001 -0.000003 0.000001 -11.687361 -5.789405 0.209090 11.058661 9.015637 -38.294876 4.086480 -2.000549 -52.153880 1.268532 -0.158017 -14.200531 0.000001 -0.000003 0.000003 54.111542 1.076554 -9.015588 -1.805480 11.287038 1.153748 1.551367 2.804372 -4.573014 0.000001 0.000003 0.000001 27.399668 -8.476137 -1.128431 -16.612600 0.000000 -0.000002 3.049254 15.680432 -5.151842 -0.000000 0.000000 -0.000000 -9.816805 -0.000001 -0.000001 0.000001 0.000000 -0.000000 23.592841 11.625725 -6.636925 -6.039182 -0.000001 -0.000001 -2.990174 -9.616619 3.188482 -0.000000 0.000000 0.000000 0.333721 0.000000 -0.000000 -0.000000 0.000000 0.00000
